<?xml version="1.0" encoding="utf-8"?>
<!-- Svg Vector Icons : http://www.onlinewebfonts.com/icon -->
<!DOCTYPE svg PUBLIC "-//W3C//DTD SVG 1.1//EN" "http://www.w3.org/Graphics/SVG/1.1/DTD/svg11.dtd">
<svg version="1.1" xmlns="http://www.w3.org/2000/svg" xmlns:xlink="http://www.w3.org/1999/xlink" x="0px" y="0px" viewBox="0 0 1000 1000" enable-background="new 0 0 1000 1000" xml:space="preserve">
<metadata> Svg Vector Icons : http://www.onlinewebfonts.com/icon </metadata>
<g><path fill="#fff" d="M83.1,90h639.3c40.3,0,73.1,32.7,73.1,73.1v407.9c0,40.4-32.7,73.1-73.1,73.1H391.2L204.9,811.8l0-167.8H83.1C42.7,644,10,611.3,10,570.9V163.1C10,122.7,42.7,90,83.1,90L83.1,90z M825.6,606.7V250.4h91.4c40.4,0,73.1,30.7,73.1,71v357.1c0,40.3-32.7,64.9-73.1,64.9H794.9l0.2,166.6L611.5,743.3H470.8c-40.3,0-73.1-24.5-73.1-64.9c0,0,326.9-1.8,357.5-1.8C785.8,676.7,825.6,637.3,825.6,606.7L825.6,606.7z"/></g>
</svg>